<?xml version="1.0" encoding="UTF-8"?>
<svg width="35px" height="35px" viewBox="0 0 35 35" version="1.1" xmlns="http://www.w3.org/2000/svg" xmlns:xlink="http://www.w3.org/1999/xlink">
    <g id="Welcome" stroke="none" stroke-width="1" fill="none" fill-rule="evenodd">
        <g id="Desktop-HD-index" transform="translate(-247.000000, -495.000000)" fill="#000000">
            <g id="Group-3" transform="translate(226.000000, 476.000000)">
                <path d="M45.1813495,40.3397896 L55.6199536,50.7783937 C56.0067051,51.1651452 56.0052755,51.7936228 55.6178209,52.1810774 L54.1810774,53.6178209 C53.7931481,54.0057502 53.1562079,53.9977678 52.7783937,53.6199536 L42.3397896,43.1813495 C40.1170898,44.8212226 37.3693574,45.7904839 34.395242,45.7904839 C26.9972541,45.7904839 21,39.7932298 21,32.395242 C21,24.9972541 26.9972541,19 34.395242,19 C41.7932298,19 47.7904839,24.9972541 47.7904839,32.395242 C47.7904839,35.3693574 46.8212226,38.1170898 45.1813495,40.3397896 Z M34.395242,43.1114355 C40.3136322,43.1114355 45.1114355,38.3136322 45.1114355,32.395242 C45.1114355,26.4768517 40.3136322,21.6790484 34.395242,21.6790484 C28.4768517,21.6790484 23.6790484,26.4768517 23.6790484,32.395242 C23.6790484,38.3136322 28.4768517,43.1114355 34.395242,43.1114355 Z" id="Search-Icon"></path>
            </g>
        </g>
    </g>
</svg>
