<svg xmlns="http://www.w3.org/2000/svg" viewBox="0 0 97 40.465"><defs><style>.a{fill:#fff; stroke-width: .5px; stroke: #000;}.b{fill:#3858e4;}</style></defs><path class="a" d="M376.575,935.478a6.8,6.8,0,0,0,2.647-.365A1.412,1.412,0,0,0,380,933.7a1.735,1.735,0,0,0-1-1.438,19.062,19.062,0,0,0-3.057-1.392,30.523,30.523,0,0,1-2.9-1.232,8.5,8.5,0,0,1-2.214-1.528,6.2,6.2,0,0,1-1.415-2.121,7.845,7.845,0,0,1-.5-2.966,6.411,6.411,0,0,1,2.509-5.337,10.915,10.915,0,0,1,6.889-1.962,22.116,22.116,0,0,1,4.2.388,19.549,19.549,0,0,1,3.195.845l-1.187,5.293a25.038,25.038,0,0,0-2.578-.73,14.09,14.09,0,0,0-3.126-.319q-3.195,0-3.195,1.78a1.847,1.847,0,0,0,.136.73,1.564,1.564,0,0,0,.547.616,7.576,7.576,0,0,0,1.117.641q.708.345,1.8.759a27.94,27.94,0,0,1,3.7,1.633,8.852,8.852,0,0,1,2.3,1.737,5.386,5.386,0,0,1,1.186,2.072,9.171,9.171,0,0,1,.342,2.639,6.082,6.082,0,0,1-2.669,5.372Q381.409,941,376.528,941a21.327,21.327,0,0,1-8.258-1.459l1.14-5.522a21.98,21.98,0,0,0,3.56,1.071A17.152,17.152,0,0,0,376.575,935.478Z" transform="translate(-368.27 -900.532)"/><path class="a" d="M676.551,862.352q-.912.274-2.1.524c-.792.168-1.619.31-2.486.434s-1.75.22-2.648.3-1.757.114-2.577.114a15.076,15.076,0,0,1-5.293-.868,10.646,10.646,0,0,1-3.924-2.486,10.782,10.782,0,0,1-2.44-3.924,14.944,14.944,0,0,1-.845-5.178,17.749,17.749,0,0,1,.73-5.27,11.468,11.468,0,0,1,2.1-3.991,9,9,0,0,1,3.354-2.509,11.233,11.233,0,0,1,4.539-.868,10.592,10.592,0,0,1,2.532.274,13.77,13.77,0,0,1,2.258.776V823.3h6.8v39.052Zm-15.375-11.406a8.327,8.327,0,0,0,1.415,5.065,4.886,4.886,0,0,0,4.2,1.916c.608,0,1.172-.023,1.688-.069s.943-.1,1.277-.159V845.334a5.882,5.882,0,0,0-1.665-.684,8.024,8.024,0,0,0-2.076-.275Q661.176,844.375,661.176,850.945Z" transform="translate(-607.246 -823.3)"/><path class="a" d="M838.571,928.323a15.6,15.6,0,0,1-.822,5.178,11.249,11.249,0,0,1-2.373,4.015,10.67,10.67,0,0,1-3.719,2.578,12.414,12.414,0,0,1-4.859.912,12.286,12.286,0,0,1-4.813-.912,10.668,10.668,0,0,1-3.719-2.578,11.783,11.783,0,0,1-2.419-4.015,14.843,14.843,0,0,1-.868-5.178,14.325,14.325,0,0,1,.889-5.155,11.715,11.715,0,0,1,2.463-3.97,11.071,11.071,0,0,1,3.742-2.555,12.8,12.8,0,0,1,9.49,0,10.842,10.842,0,0,1,3.719,2.555,11.608,11.608,0,0,1,2.419,3.97A14.616,14.616,0,0,1,838.571,928.323Zm-6.936,0a8.557,8.557,0,0,0-1.254-4.95,4.1,4.1,0,0,0-3.581-1.8,4.165,4.165,0,0,0-3.606,1.8,8.432,8.432,0,0,0-1.277,4.95,8.652,8.652,0,0,0,1.277,5,4.128,4.128,0,0,0,3.606,1.847,4.072,4.072,0,0,0,3.581-1.847A8.769,8.769,0,0,0,831.635,928.323Z" transform="translate(-741.571 -900.541)"/><path class="b" d="M517.117,919.62v12.547a9.965,9.965,0,0,1-.868,4.746,3.211,3.211,0,0,1-5.383,0,10.5,10.5,0,0,1-.868-4.746V919.62h-6.8v13.368a18.989,18.989,0,0,0,.5,4.517,9,9,0,0,0,1.688,3.537,7.711,7.711,0,0,0,3.218,2.3,15.378,15.378,0,0,0,9.9,0,7.738,7.738,0,0,0,3.218-2.3,8.983,8.983,0,0,0,1.688-3.537,19,19,0,0,0,.5-4.517V919.62Z" transform="translate(-481.027 -903.791)"/></svg>
